<svg width="256" height="64" viewBox="0 0 256 64" fill="none" xmlns="http://www.w3.org/2000/svg">
<path d="M28.1781 27.7109C28.1651 28.1536 28.0805 28.5247 27.9242 28.8242C27.781 29.1237 27.5922 29.3646 27.3578 29.5469C27.1365 29.7161 26.8826 29.8398 26.5961 29.918C26.3096 29.9831 26.0232 30.0156 25.7367 30.0156C25.5023 30.0156 25.268 29.9831 25.0336 29.918C24.7992 29.8529 24.5583 29.8203 24.3109 29.8203C23.8943 29.8203 23.3799 29.9505 22.768 30.2109C22.169 30.4583 21.5505 30.7839 20.9125 31.1875C20.2745 31.5911 19.6495 32.0404 19.0375 32.5352C18.4255 33.0299 17.8982 33.5182 17.4555 34C17.2081 34.2734 16.9216 34.6055 16.5961 34.9961C16.2706 35.3737 15.9581 35.7708 15.6586 36.1875C15.3721 36.6042 15.1247 37.0208 14.9164 37.4375C14.7211 37.8542 14.6234 38.2318 14.6234 38.5703C14.6234 38.987 14.6625 39.4753 14.7406 40.0352C14.8318 40.5951 14.8773 41.1875 14.8773 41.8125C14.8773 42.0339 14.8708 42.2422 14.8578 42.4375C14.8578 42.6198 14.8318 42.8021 14.7797 42.9844C14.7536 43.1406 14.669 43.3164 14.5258 43.5117C14.3956 43.694 14.2263 43.8698 14.018 44.0391C13.8096 44.2214 13.5818 44.3711 13.3344 44.4883C13.087 44.6055 12.8331 44.6641 12.5727 44.6641C12.143 44.6641 11.7784 44.5078 11.4789 44.1953C11.1794 43.8828 10.9385 43.4466 10.7562 42.8867C10.587 42.3268 10.4633 41.6693 10.3852 40.9141C10.307 40.1589 10.268 39.3451 10.268 38.4727C10.268 38.4206 10.268 38.2448 10.268 37.9453C10.281 37.6458 10.2875 37.3203 10.2875 36.9688C10.3005 36.6172 10.3135 36.2786 10.3266 35.9531C10.3396 35.6276 10.3461 35.4193 10.3461 35.3281C10.3461 35.276 10.3526 35.1068 10.3656 34.8203C10.3917 34.5339 10.4177 34.1888 10.4437 33.7852C10.4828 33.3685 10.5154 32.9258 10.5414 32.457C10.5805 31.9753 10.613 31.5195 10.6391 31.0898C10.6781 30.6602 10.7107 30.2826 10.7367 29.957C10.7628 29.6185 10.7823 29.3971 10.7953 29.293C10.8083 29.2539 10.8214 29.1237 10.8344 28.9023C10.8604 28.668 10.8865 28.401 10.9125 28.1016C10.9516 27.8021 10.9971 27.4961 11.0492 27.1836C11.1013 26.8711 11.1534 26.6107 11.2055 26.4023C11.2576 26.2201 11.3617 26.0052 11.518 25.7578C11.6872 25.5104 11.8956 25.276 12.143 25.0547C12.4034 24.8203 12.6898 24.625 13.0023 24.4688C13.3148 24.2995 13.6469 24.2148 13.9984 24.2148C14.4151 24.2148 14.7471 24.2799 14.9945 24.4102C15.2549 24.5404 15.4568 24.7031 15.6 24.8984C15.7562 25.0807 15.8604 25.2826 15.9125 25.5039C15.9646 25.7122 15.9906 25.901 15.9906 26.0703C15.9906 26.1745 15.9516 26.4089 15.8734 26.7734C15.7953 27.125 15.6911 27.5156 15.5609 27.9453C15.4047 28.5182 15.268 29.1888 15.1508 29.957C15.0336 30.7122 14.9424 31.4414 14.8773 32.1445C15.5935 31.3372 16.3617 30.5234 17.182 29.7031C18.0023 28.8698 18.8552 28.1211 19.7406 27.457C20.626 26.7799 21.531 26.2331 22.4555 25.8164C23.3799 25.3867 24.3044 25.1719 25.2289 25.1719C25.6846 25.1719 26.0948 25.25 26.4594 25.4062C26.824 25.5495 27.1299 25.7448 27.3773 25.9922C27.6378 26.2266 27.8331 26.4935 27.9633 26.793C28.1065 27.0794 28.1781 27.3724 28.1781 27.6719V27.7109ZM46.375 15.3281C46.375 15.7578 46.3099 16.168 46.1797 16.5586C46.0495 16.9362 45.8607 17.2943 45.6133 17.6328C45.1185 18.3229 44.3568 18.668 43.3281 18.668C42.9766 18.668 42.612 18.6419 42.2344 18.5898C41.8568 18.5247 41.5117 18.4336 41.1992 18.3164C40.8997 18.1862 40.6523 18.0299 40.457 17.8477C40.2617 17.6654 40.1641 17.457 40.1641 17.2227C40.1641 16.819 40.2682 16.3958 40.4766 15.9531C40.6979 15.4974 40.9714 15.0807 41.2969 14.7031C41.6224 14.3125 41.9805 13.9935 42.3711 13.7461C42.7747 13.4857 43.1589 13.3555 43.5234 13.3555C43.9792 13.3555 44.3828 13.388 44.7344 13.4531C45.0859 13.5052 45.3854 13.6029 45.6328 13.7461C45.8802 13.8893 46.0625 14.0911 46.1797 14.3516C46.3099 14.612 46.375 14.9375 46.375 15.3281ZM53.9727 37.9844C53.543 38.4141 53.1328 38.8177 52.7422 39.1953C52.3646 39.5729 51.9805 39.931 51.5898 40.2695C51.1992 40.6081 50.8021 40.9401 50.3984 41.2656C50.0078 41.5911 49.5911 41.9167 49.1484 42.2422C48.25 42.8932 47.3646 43.401 46.4922 43.7656C45.6198 44.1172 44.793 44.293 44.0117 44.293C43.1003 44.293 42.306 44.1432 41.6289 43.8438C40.9648 43.5312 40.3919 43.1146 39.9102 42.5938C39.4414 42.0599 39.0573 41.4544 38.7578 40.7773C38.4583 40.0872 38.2174 39.3646 38.0352 38.6094C37.8659 37.8411 37.7487 37.0664 37.6836 36.2852C37.6185 35.5039 37.5859 34.7617 37.5859 34.0586C37.5859 33.7852 37.6055 33.3945 37.6445 32.8867C37.6836 32.3659 37.7357 31.8255 37.8008 31.2656C37.8789 30.6927 37.957 30.1393 38.0352 29.6055C38.1263 29.0716 38.2174 28.6419 38.3086 28.3164C38.4128 27.9779 38.5755 27.6589 38.7969 27.3594C39.0312 27.0469 39.3177 26.7604 39.6562 26.5C40.3333 25.9531 41.0885 25.6797 41.9219 25.6797C42.7682 25.6797 43.1914 26.1875 43.1914 27.2031C43.1914 27.5547 43.1523 27.9714 43.0742 28.4531C42.9961 28.9349 42.9245 29.4232 42.8594 29.918C42.7812 30.5039 42.7096 31.0312 42.6445 31.5C42.5794 31.9557 42.5208 32.3724 42.4688 32.75C42.4297 33.1146 42.3971 33.4466 42.3711 33.7461C42.3451 34.0456 42.332 34.332 42.332 34.6055C42.332 35.1003 42.3646 35.6536 42.4297 36.2656C42.5078 36.8776 42.6185 37.4505 42.7617 37.9844C42.9049 38.5052 43.0807 38.9479 43.2891 39.3125C43.4974 39.6641 43.7383 39.8398 44.0117 39.8398C44.4154 39.8398 44.8711 39.7943 45.3789 39.7031C45.8867 39.599 46.4271 39.3841 47 39.0586C47.5469 38.7461 48.1133 38.3815 48.6992 37.9648C49.2982 37.5482 49.9102 37.0664 50.5352 36.5195C51.1211 36.0117 51.694 35.5039 52.2539 34.9961C52.8268 34.4883 53.3997 33.9349 53.9727 33.3359C54.2331 33.0625 54.4674 32.8151 54.6758 32.5938C54.8971 32.3724 55.099 32.1641 55.2812 31.9688C55.4635 31.7604 55.6393 31.5651 55.8086 31.3828C55.9909 31.1875 56.1797 30.9857 56.375 30.7773C56.4271 30.7122 56.4922 30.6406 56.5703 30.5625C56.6484 30.4714 56.7331 30.3867 56.8242 30.3086C56.9154 30.2174 57.013 30.1458 57.1172 30.0938C57.2214 30.0286 57.3255 29.9961 57.4297 29.9961C57.5729 29.9961 57.7227 30.0286 57.8789 30.0938C58.0482 30.1589 58.1784 30.2891 58.2695 30.4844C58.3607 30.6667 58.4128 30.849 58.4258 31.0312C58.4388 31.2005 58.4453 31.3438 58.4453 31.4609C58.4453 31.5911 58.3737 31.806 58.2305 32.1055C58.0872 32.3919 57.8984 32.7305 57.6641 33.1211C57.4297 33.5117 57.1562 33.9284 56.8438 34.3711C56.5312 34.8138 56.2122 35.2565 55.8867 35.6992C55.5612 36.1419 55.2292 36.5651 54.8906 36.9688C54.5651 37.3594 54.2591 37.6979 53.9727 37.9844ZM92.775 29.3906C92.775 29.4818 92.749 29.6185 92.6969 29.8008C92.6448 29.9701 92.5406 30.1849 92.3844 30.4453C92.2411 30.6927 92.0263 30.9792 91.7398 31.3047C91.4664 31.6172 91.1018 31.9622 90.6461 32.3398C90.2164 32.6914 89.6565 33.082 88.9664 33.5117C88.2893 33.9414 87.5276 34.3906 86.6812 34.8594C85.8479 35.3151 84.9625 35.7904 84.025 36.2852C83.0875 36.7669 82.1565 37.2357 81.232 37.6914C80.3075 38.1471 79.4091 38.5833 78.5367 39C77.6643 39.4167 76.8766 39.7878 76.1734 40.1133C75.7177 40.3216 75.262 40.5755 74.8062 40.875C74.3635 41.1615 73.9273 41.4414 73.4977 41.7148C73.081 41.9753 72.6708 42.2031 72.2672 42.3984C71.8766 42.5807 71.5055 42.6719 71.1539 42.6719C70.7763 42.6719 70.4117 42.6263 70.0602 42.5352C69.7216 42.444 69.4156 42.3073 69.1422 42.125C68.8818 41.9297 68.6734 41.6823 68.5172 41.3828C68.3609 41.0833 68.2828 40.7188 68.2828 40.2891C68.2828 39.9375 68.4065 39.638 68.6539 39.3906C68.9013 39.1302 69.2008 38.9089 69.5523 38.7266C69.9169 38.5312 70.2945 38.3685 70.6852 38.2383C71.0888 38.0951 71.4339 37.9714 71.7203 37.8672C72.1109 37.724 72.4755 37.6068 72.8141 37.5156C73.1656 37.4115 73.4521 37.3008 73.6734 37.1836C74.025 36.9883 74.357 36.7409 74.6695 36.4414C74.982 36.1289 75.275 35.7904 75.5484 35.4258C75.8349 35.0482 76.1018 34.6576 76.3492 34.2539C76.5966 33.8372 76.831 33.4401 77.0523 33.0625C77.1956 32.8281 77.3193 32.5612 77.4234 32.2617C77.5276 31.9622 77.6187 31.6628 77.6969 31.3633C77.775 31.0638 77.8336 30.7839 77.8727 30.5234C77.9117 30.25 77.9312 30.0156 77.9312 29.8203C77.9312 29.1302 77.8141 28.5833 77.5797 28.1797C77.3453 27.763 77.0523 27.5547 76.7008 27.5547C76.4143 27.5547 76.0758 27.6654 75.6852 27.8867C75.2945 28.0951 74.8974 28.3555 74.4937 28.668C74.0901 28.9674 73.706 29.2865 73.3414 29.625C72.9768 29.9635 72.6839 30.25 72.4625 30.4844C71.9417 31.0443 71.3883 31.6758 70.8023 32.3789C70.2294 33.069 69.676 33.7917 69.1422 34.5469C68.6214 35.2891 68.1396 36.0508 67.6969 36.832C67.2672 37.6003 66.9286 38.3555 66.6812 39.0977C66.525 39.5404 66.4078 40.0482 66.3297 40.6211C66.2516 41.194 66.1865 41.793 66.1344 42.418C66.0953 43.043 66.0628 43.6745 66.0367 44.3125C66.0107 44.9635 65.9781 45.5885 65.9391 46.1875C65.874 47.1641 65.8349 48.1341 65.8219 49.0977C65.8219 50.0742 65.7437 50.9661 65.5875 51.7734C65.5354 52.0339 65.4443 52.2812 65.3141 52.5156C65.1839 52.75 65.0146 52.9583 64.8062 53.1406C64.6109 53.3229 64.3766 53.4661 64.1031 53.5703C63.8297 53.6875 63.5237 53.7461 63.1852 53.7461C62.9768 53.7461 62.7359 53.694 62.4625 53.5898C62.2021 53.4987 61.9547 53.362 61.7203 53.1797C61.4859 53.0104 61.2841 52.8086 61.1148 52.5742C60.9586 52.3529 60.8805 52.112 60.8805 51.8516C60.8805 51.5781 60.8935 51.2461 60.9195 50.8555C60.9456 50.4779 60.9781 50.0677 61.0172 49.625C61.0693 49.1953 61.1214 48.7526 61.1734 48.2969C61.2255 47.8542 61.2776 47.431 61.3297 47.0273C61.3818 46.6367 61.4273 46.2852 61.4664 45.9727C61.5055 45.6602 61.538 45.4258 61.5641 45.2695C61.7333 44.0326 61.8896 42.6393 62.0328 41.0898C62.176 39.5273 62.2867 37.9258 62.3648 36.2852C62.3909 35.8685 62.4104 35.3477 62.4234 34.7227C62.4495 34.0977 62.469 33.4727 62.482 32.8477C62.5081 32.2096 62.5276 31.6302 62.5406 31.1094C62.5667 30.5755 62.5862 30.1914 62.5992 29.957C62.7164 28.5898 62.9833 27.5677 63.4 26.8906C63.8167 26.2135 64.4221 25.875 65.2164 25.875C65.5289 25.875 65.8284 25.9466 66.1148 26.0898C66.4013 26.2201 66.6487 26.4023 66.857 26.6367C67.0784 26.8581 67.2542 27.1055 67.3844 27.3789C67.5146 27.6523 67.5797 27.9258 67.5797 28.1992C67.5797 28.4466 67.5536 28.7656 67.5016 29.1562C67.4495 29.5469 67.3844 29.957 67.3062 30.3867C67.2411 30.8164 67.163 31.2396 67.0719 31.6562C66.9937 32.0729 66.9221 32.4245 66.857 32.7109C67.1305 32.2552 67.4234 31.7734 67.7359 31.2656C68.0615 30.7578 68.387 30.263 68.7125 29.7812C69.038 29.2865 69.3635 28.8307 69.6891 28.4141C70.0146 27.9844 70.3271 27.6263 70.6266 27.3398C71.1734 26.806 71.7268 26.3112 72.2867 25.8555C72.8466 25.3867 73.4195 24.9831 74.0055 24.6445C74.5914 24.306 75.2034 24.0391 75.8414 23.8438C76.4794 23.6484 77.15 23.5508 77.8531 23.5508C78.4 23.5508 78.9404 23.6875 79.4742 23.9609C80.0211 24.2214 80.5094 24.6055 80.9391 25.1133C81.3687 25.6081 81.7203 26.2135 81.9937 26.9297C82.2672 27.6328 82.4039 28.4336 82.4039 29.332C82.4039 29.7747 82.3323 30.2565 82.1891 30.7773C82.0589 31.2852 81.8766 31.793 81.6422 32.3008C81.4078 32.8086 81.1279 33.2969 80.8023 33.7656C80.4768 34.2344 80.1187 34.651 79.7281 35.0156C80.5484 34.599 81.4143 34.1432 82.3258 33.6484C83.2372 33.1536 84.1487 32.6393 85.0602 32.1055C85.9846 31.5716 86.8896 31.0378 87.775 30.5039C88.6734 29.957 89.5003 29.4427 90.2555 28.9609C90.6331 28.7135 90.9586 28.5117 91.232 28.3555C91.5185 28.1862 91.8115 28.1016 92.1109 28.1016C92.3323 28.1016 92.5016 28.1667 92.6187 28.2969C92.749 28.4141 92.8141 28.5833 92.8141 28.8047C92.8141 28.9089 92.8075 29.013 92.7945 29.1172C92.7815 29.2214 92.775 29.3125 92.775 29.3906ZM122.378 26.9688C122.378 27.2161 122.293 27.4831 122.124 27.7695C121.968 28.043 121.76 28.3229 121.499 28.6094C121.252 28.8828 120.965 29.1562 120.64 29.4297C120.314 29.7031 119.989 29.957 119.663 30.1914C119.338 30.4128 119.025 30.6081 118.726 30.7773C118.439 30.9466 118.198 31.0768 118.003 31.168C117.652 31.3112 117.196 31.4479 116.636 31.5781C116.089 31.6953 115.51 31.7995 114.898 31.8906C114.299 31.9688 113.713 32.0339 113.14 32.0859C112.58 32.138 112.105 32.1641 111.714 32.1641C111.623 32.1641 111.493 32.1576 111.323 32.1445C111.167 32.1185 110.991 32.0859 110.796 32.0469C110.614 32.0078 110.425 31.9622 110.23 31.9102C110.047 31.8451 109.891 31.7669 109.761 31.6758C109.904 31.9753 109.982 32.3073 109.995 32.6719C110.021 33.0234 110.034 33.375 110.034 33.7266C110.034 33.974 110.008 34.2669 109.956 34.6055C109.904 34.944 109.833 35.2891 109.741 35.6406C109.663 35.9922 109.566 36.3307 109.448 36.6562C109.331 36.9818 109.208 37.2552 109.077 37.4766C108.752 38.0365 108.4 38.5508 108.023 39.0195C107.658 39.4883 107.248 39.9245 106.792 40.3281C106.336 40.7318 105.822 41.1094 105.249 41.4609C104.676 41.8125 104.012 42.1576 103.257 42.4961C102.45 42.8477 101.642 43.0951 100.835 43.2383C100.028 43.3685 99.1945 43.4336 98.3352 43.4336C97.6971 43.4336 97.1307 43.2708 96.6359 42.9453C96.1411 42.6068 95.7245 42.1576 95.3859 41.5977C95.0474 41.0378 94.787 40.3932 94.6047 39.6641C94.4354 38.9349 94.3508 38.1732 94.3508 37.3789C94.3508 37.1836 94.3638 36.9427 94.3898 36.6562C94.4289 36.3568 94.4745 36.0573 94.5266 35.7578C94.5917 35.4583 94.6568 35.1654 94.7219 34.8789C94.8 34.5924 94.8716 34.3516 94.9367 34.1562C95.119 33.6094 95.3794 32.9844 95.718 32.2812C96.0695 31.5781 96.4797 30.862 96.9484 30.1328C97.4172 29.3906 97.938 28.668 98.5109 27.9648C99.0838 27.2487 99.6893 26.6172 100.327 26.0703C100.978 25.5104 101.649 25.0612 102.339 24.7227C103.042 24.3841 103.745 24.2148 104.448 24.2148C104.748 24.2148 104.989 24.2474 105.171 24.3125C105.353 24.3646 105.503 24.4427 105.62 24.5469C105.737 24.638 105.842 24.7487 105.933 24.8789C106.037 24.9961 106.148 25.1133 106.265 25.2305C106.356 25.2044 106.447 25.1849 106.538 25.1719C106.642 25.1589 106.747 25.1523 106.851 25.1523C107.254 25.1523 107.652 25.3086 108.042 25.6211C108.433 25.9336 108.83 26.2786 109.234 26.6562C109.416 26.8255 109.598 27.0013 109.78 27.1836C109.976 27.3529 110.152 27.5091 110.308 27.6523C110.464 27.7826 110.601 27.8932 110.718 27.9844C110.848 28.0625 110.939 28.1016 110.991 28.1016C111.33 28.1016 111.695 28.1016 112.085 28.1016C112.489 28.0885 112.892 28.0755 113.296 28.0625C113.713 28.0365 114.11 28.0039 114.487 27.9648C114.878 27.9258 115.23 27.8802 115.542 27.8281C115.581 27.8151 115.751 27.776 116.05 27.7109C116.349 27.6328 116.708 27.5417 117.124 27.4375C117.554 27.3203 118.016 27.1966 118.511 27.0664C119.006 26.9362 119.461 26.819 119.878 26.7148C120.308 26.5977 120.672 26.5065 120.972 26.4414C121.284 26.3633 121.467 26.3242 121.519 26.3242C121.779 26.3242 121.987 26.3568 122.144 26.4219C122.3 26.487 122.378 26.6693 122.378 26.9688ZM99.8391 39.9961C100.894 39.9961 101.825 39.7161 102.632 39.1562C103.452 38.5964 104.142 37.8542 104.702 36.9297C105.262 35.9922 105.692 34.931 105.991 33.7461C106.304 32.5482 106.467 31.3177 106.48 30.0547C106.389 29.8594 106.252 29.6576 106.07 29.4492C105.9 29.2409 105.705 29.0586 105.484 28.9023C105.262 28.7331 105.034 28.5964 104.8 28.4922C104.566 28.388 104.351 28.3359 104.155 28.3359C103.843 28.3359 103.504 28.4596 103.14 28.707C102.775 28.9544 102.437 29.2083 102.124 29.4688C101.812 29.7292 101.499 30.0742 101.187 30.5039C100.887 30.9206 100.607 31.3893 100.347 31.9102C100.086 32.431 99.8456 32.9844 99.6242 33.5703C99.4029 34.1432 99.2141 34.7161 99.0578 35.2891C98.9016 35.849 98.7779 36.3958 98.6867 36.9297C98.6086 37.4635 98.5695 37.9388 98.5695 38.3555C98.5695 38.5638 98.6021 38.7656 98.6672 38.9609C98.7323 39.1562 98.8169 39.332 98.9211 39.4883C99.0383 39.6445 99.175 39.7682 99.3312 39.8594C99.4875 39.9505 99.6568 39.9961 99.8391 39.9961ZM168.798 30.4844C168.798 30.6016 168.765 30.7578 168.7 30.9531C168.648 31.1354 168.576 31.3372 168.485 31.5586C168.394 31.7669 168.283 31.9818 168.153 32.2031C168.036 32.4245 167.919 32.6328 167.802 32.8281C167.593 33.1536 167.313 33.5312 166.962 33.9609C166.61 34.3906 166.22 34.8398 165.79 35.3086C165.36 35.7773 164.904 36.2461 164.423 36.7148C163.941 37.1836 163.466 37.6198 162.997 38.0234C162.619 38.3359 162.177 38.681 161.669 39.0586C161.161 39.4362 160.621 39.7878 160.048 40.1133C159.475 40.4388 158.889 40.7122 158.29 40.9336C157.704 41.1419 157.137 41.2461 156.591 41.2461C156.083 41.2461 155.588 41.1484 155.106 40.9531C154.637 40.7448 154.195 40.3607 153.778 39.8008C153.374 39.2409 153.016 38.4596 152.704 37.457C152.391 36.4544 152.144 35.1523 151.962 33.5508C151.949 33.3945 151.929 33.1536 151.903 32.8281C151.89 32.4896 151.871 32.1576 151.845 31.832C151.832 31.4935 151.812 31.2005 151.786 30.9531C151.76 30.7057 151.734 30.582 151.708 30.582C151.604 30.582 151.428 30.7383 151.18 31.0508C150.946 31.3633 150.66 31.7799 150.321 32.3008C149.996 32.8086 149.637 33.401 149.247 34.0781C148.856 34.7422 148.453 35.4323 148.036 36.1484C147.515 37.0599 147.02 37.8802 146.552 38.6094C146.096 39.3255 145.66 39.931 145.243 40.4258C144.839 40.9076 144.442 41.2786 144.052 41.5391C143.674 41.7995 143.29 41.9297 142.899 41.9297C142.3 41.9297 141.812 41.819 141.434 41.5977C141.057 41.3633 140.757 41.0117 140.536 40.543C140.315 40.0612 140.158 39.4492 140.067 38.707C139.976 37.9518 139.917 37.0599 139.891 36.0312C139.852 34.3125 139.794 32.9714 139.716 32.0078C139.651 31.0443 139.553 30.5625 139.423 30.5625C139.266 30.5625 139.006 30.7643 138.641 31.168C138.277 31.5716 137.841 32.125 137.333 32.8281C136.838 33.5312 136.291 34.3581 135.692 35.3086C135.106 36.2591 134.501 37.2812 133.876 38.375C133.72 38.6615 133.531 38.9935 133.309 39.3711C133.088 39.7487 132.86 40.1328 132.626 40.5234C132.391 40.9141 132.157 41.2917 131.923 41.6562C131.701 42.0208 131.499 42.3333 131.317 42.5938C131.083 42.9323 130.796 43.1927 130.458 43.375C130.119 43.5443 129.761 43.6289 129.384 43.6289C128.85 43.6289 128.394 43.5182 128.016 43.2969C127.639 43.0625 127.333 42.75 127.098 42.3594C126.864 41.9688 126.688 41.5065 126.571 40.9727C126.467 40.4388 126.415 39.8724 126.415 39.2734C126.415 38.7396 126.428 38.2578 126.454 37.8281C126.48 37.3984 126.519 36.9688 126.571 36.5391C126.623 36.0964 126.682 35.6341 126.747 35.1523C126.825 34.6706 126.91 34.1172 127.001 33.4922C127.079 32.9453 127.137 32.3724 127.177 31.7734C127.216 31.1615 127.255 30.569 127.294 29.9961C127.333 29.4102 127.378 28.8698 127.43 28.375C127.483 27.8802 127.554 27.4701 127.645 27.1445C127.71 26.9232 127.795 26.6888 127.899 26.4414C128.003 26.181 128.153 25.9466 128.348 25.7383C128.544 25.5169 128.791 25.3346 129.091 25.1914C129.39 25.0352 129.761 24.957 130.204 24.957C130.608 24.957 130.933 25.0352 131.18 25.1914C131.428 25.3346 131.617 25.5365 131.747 25.7969C131.877 26.0443 131.962 26.3372 132.001 26.6758C132.053 27.0013 132.079 27.3464 132.079 27.7109C132.079 28.0234 132.033 28.4466 131.942 28.9805C131.864 29.5143 131.76 30.1068 131.63 30.7578C131.512 31.3958 131.376 32.0664 131.22 32.7695C131.063 33.4596 130.914 34.1237 130.77 34.7617C130.64 35.3997 130.523 35.9792 130.419 36.5C130.315 37.0078 130.243 37.4049 130.204 37.6914C130.23 37.6393 130.302 37.5091 130.419 37.3008C130.549 37.0924 130.699 36.8385 130.868 36.5391C131.05 36.2396 131.239 35.9206 131.434 35.582C131.63 35.2435 131.812 34.9245 131.981 34.625C132.164 34.3255 132.32 34.0651 132.45 33.8438C132.58 33.6224 132.658 33.4857 132.684 33.4336C132.919 33.043 133.192 32.6068 133.505 32.125C133.817 31.6302 134.143 31.1354 134.481 30.6406C134.82 30.1328 135.152 29.651 135.477 29.1953C135.816 28.7396 136.122 28.3555 136.395 28.043C136.981 27.3789 137.6 26.8776 138.251 26.5391C138.915 26.2005 139.618 26.0312 140.36 26.0312C141.154 26.0312 141.818 26.3047 142.352 26.8516C142.886 27.3984 143.244 28.1146 143.427 29C143.492 29.3255 143.544 29.7357 143.583 30.2305C143.622 30.7253 143.648 31.2461 143.661 31.793C143.687 32.3268 143.707 32.8672 143.72 33.4141C143.733 33.9609 143.739 34.4492 143.739 34.8789C143.752 35.3086 143.765 35.6602 143.778 35.9336C143.791 36.207 143.817 36.3438 143.856 36.3438C143.973 36.3438 144.143 36.181 144.364 35.8555C144.585 35.5299 144.833 35.1198 145.106 34.625C145.38 34.1302 145.666 33.5964 145.966 33.0234C146.265 32.4505 146.552 31.9232 146.825 31.4414C147.281 30.6732 147.762 29.9375 148.27 29.2344C148.778 28.5182 149.279 27.8932 149.774 27.3594C150.282 26.8125 150.764 26.3828 151.22 26.0703C151.675 25.7448 152.079 25.582 152.43 25.582C152.678 25.582 152.932 25.6081 153.192 25.6602C153.453 25.7122 153.7 25.7904 153.934 25.8945C154.182 25.9857 154.403 26.1029 154.598 26.2461C154.794 26.3763 154.943 26.526 155.048 26.6953C155.269 27.0469 155.432 27.431 155.536 27.8477C155.64 28.2643 155.712 28.7266 155.751 29.2344C155.803 29.7422 155.835 30.3021 155.848 30.9141C155.874 31.526 155.927 32.2031 156.005 32.9453C156.148 34.2995 156.356 35.3607 156.63 36.1289C156.903 36.8971 157.294 37.2812 157.802 37.2812C158.023 37.2812 158.309 37.2031 158.661 37.0469C159.026 36.8776 159.416 36.6693 159.833 36.4219C160.262 36.1615 160.699 35.875 161.141 35.5625C161.597 35.25 162.02 34.9375 162.411 34.625C162.841 34.2865 163.251 33.9414 163.641 33.5898C164.032 33.2253 164.416 32.8542 164.794 32.4766C165.184 32.099 165.575 31.7083 165.966 31.3047C166.369 30.888 166.792 30.4518 167.235 29.9961C167.509 29.7227 167.821 29.5859 168.173 29.5859C168.589 29.5859 168.798 29.8854 168.798 30.4844ZM197.307 34.4883C197.307 34.6576 197.164 34.9115 196.877 35.25C196.591 35.5885 196.181 35.9206 195.647 36.2461C195.113 36.5716 194.468 36.8581 193.713 37.1055C192.958 37.3529 192.105 37.4766 191.155 37.4766C190.491 37.4766 189.879 37.418 189.319 37.3008C188.772 37.1836 188.29 37.0599 187.873 36.9297C187.47 36.7865 187.138 36.6628 186.877 36.5586C186.63 36.4414 186.474 36.3828 186.409 36.3828C186.33 36.3828 186.213 36.5 186.057 36.7344C185.901 36.9688 185.718 37.2747 185.51 37.6523C185.12 38.3424 184.618 39.026 184.006 39.7031C183.394 40.3802 182.73 41.0052 182.014 41.5781C181.298 42.151 180.556 42.6523 179.788 43.082C179.032 43.5117 178.31 43.8177 177.62 44C177.476 44.0391 177.261 44.0781 176.975 44.1172C176.702 44.1693 176.415 44.2148 176.116 44.2539C175.816 44.306 175.536 44.3451 175.276 44.3711C175.028 44.3971 174.853 44.4102 174.748 44.4102C173.954 44.4102 173.271 44.2279 172.698 43.8633C172.138 43.4987 171.676 43.043 171.311 42.4961C170.946 41.9492 170.679 41.3633 170.51 40.7383C170.341 40.1003 170.256 39.5078 170.256 38.9609C170.256 38.8568 170.269 38.6354 170.295 38.2969C170.321 37.9453 170.367 37.5547 170.432 37.125C170.497 36.6823 170.575 36.2331 170.666 35.7773C170.771 35.3086 170.888 34.918 171.018 34.6055C171.278 34.0326 171.63 33.3294 172.073 32.4961C172.528 31.6628 173.023 30.8359 173.557 30.0156C173.922 29.4427 174.423 28.8503 175.061 28.2383C175.699 27.6263 176.389 27.0729 177.131 26.5781C177.886 26.0703 178.661 25.6536 179.455 25.3281C180.263 25.0026 181.005 24.8398 181.682 24.8398C181.982 24.8398 182.242 24.8724 182.463 24.9375C182.685 25.0026 182.88 25.0872 183.049 25.1914C183.218 25.2956 183.368 25.4128 183.498 25.543C183.642 25.6732 183.772 25.8099 183.889 25.9531C184.006 26.0833 184.117 26.2005 184.221 26.3047C184.325 26.4089 184.39 26.4609 184.416 26.4609C184.924 26.5781 185.341 26.8125 185.666 27.1641C186.005 27.5156 186.272 27.9258 186.467 28.3945C186.676 28.8503 186.832 29.332 186.936 29.8398C187.053 30.3346 187.144 30.7904 187.209 31.207C187.248 31.4805 187.359 31.7865 187.541 32.125C187.737 32.4505 188.023 32.763 188.401 33.0625C188.791 33.349 189.286 33.5964 189.885 33.8047C190.497 34 191.239 34.0977 192.112 34.0977C192.659 34.0977 193.153 34.0716 193.596 34.0195C194.039 33.9674 194.429 33.9154 194.768 33.8633C195.12 33.7982 195.413 33.7396 195.647 33.6875C195.881 33.6354 196.064 33.6094 196.194 33.6094C196.623 33.6094 196.916 33.6875 197.073 33.8438C197.229 33.987 197.307 34.2018 197.307 34.4883ZM183.108 33.4141C183.108 33.2578 183.069 33.082 182.991 32.8867C182.926 32.6914 182.841 32.4766 182.737 32.2422C182.633 31.9948 182.522 31.7344 182.405 31.4609C182.288 31.1745 182.183 30.8685 182.092 30.543C182.001 30.2044 181.936 29.8984 181.897 29.625C181.871 29.3385 181.838 29.0911 181.799 28.8828C181.76 28.6615 181.708 28.4922 181.643 28.375C181.578 28.2578 181.467 28.1992 181.311 28.1992C180.881 28.1992 180.406 28.3685 179.885 28.707C179.377 29.0456 178.863 29.5013 178.342 30.0742C177.821 30.6471 177.314 31.3112 176.819 32.0664C176.324 32.8086 175.881 33.5964 175.491 34.4297C175.113 35.263 174.807 36.1094 174.573 36.9688C174.338 37.8151 174.221 38.6289 174.221 39.4102C174.221 39.6315 174.267 39.8529 174.358 40.0742C174.462 40.2826 174.586 40.4714 174.729 40.6406C174.872 40.7969 175.028 40.9271 175.198 41.0312C175.367 41.1354 175.53 41.1875 175.686 41.1875C176.168 41.1875 176.695 41.0312 177.268 40.7188C177.841 40.4062 178.401 40.0286 178.948 39.5859C179.495 39.1302 180.002 38.6549 180.471 38.1602C180.94 37.6654 181.311 37.2357 181.584 36.8711C182.014 36.3112 182.372 35.7643 182.659 35.2305C182.958 34.6836 183.108 34.0781 183.108 33.4141ZM209.84 26.9102C209.84 26.6237 209.807 26.3503 209.742 26.0898C209.69 25.8294 209.599 25.6667 209.469 25.6016C209.026 25.6016 208.551 25.7904 208.043 26.168C207.548 26.5456 207.073 27.0859 206.617 27.7891C206.161 28.4792 205.751 29.319 205.387 30.3086C205.035 31.2852 204.775 32.3724 204.605 33.5703C205.217 33.1146 205.829 32.6393 206.441 32.1445C207.066 31.6367 207.626 31.1094 208.121 30.5625C208.629 30.0156 209.039 29.4427 209.352 28.8438C209.677 28.2318 209.84 27.5872 209.84 26.9102ZM225.074 30.5039C225.074 30.7383 224.898 31.168 224.547 31.793C223.87 32.7695 223.115 33.7396 222.281 34.7031C221.461 35.6536 220.582 36.5586 219.645 37.418C218.707 38.2773 217.73 39.0781 216.715 39.8203C215.699 40.5495 214.671 41.181 213.629 41.7148C212.587 42.2487 211.546 42.6719 210.504 42.9844C209.475 43.2839 208.466 43.4336 207.477 43.4336C205.25 43.4336 203.512 42.8086 202.262 41.5586C201.025 40.2956 200.406 38.3945 200.406 35.8555C200.406 34.8398 200.478 33.8438 200.621 32.8672C200.764 31.8776 200.999 30.9076 201.324 29.957C201.663 28.9935 202.099 28.0495 202.633 27.125C203.167 26.2005 203.824 25.3021 204.605 24.4297C204.892 24.1042 205.224 23.7917 205.602 23.4922C205.992 23.1927 206.402 22.9258 206.832 22.6914C207.275 22.457 207.73 22.2682 208.199 22.125C208.681 21.9818 209.156 21.9102 209.625 21.9102C210.315 21.9102 210.908 22.0404 211.402 22.3008C211.91 22.5612 212.327 22.9128 212.652 23.3555C212.978 23.7852 213.219 24.2865 213.375 24.8594C213.531 25.4193 213.609 26.0117 213.609 26.6367C213.609 27.7956 213.18 29 212.32 30.25C211.461 31.487 210.27 32.7565 208.746 34.0586C208.251 34.4753 207.678 34.931 207.027 35.4258C206.376 35.9076 205.647 36.4544 204.84 37.0664C204.866 37.3919 204.957 37.6979 205.113 37.9844C205.283 38.2708 205.504 38.5247 205.777 38.7461C206.064 38.9544 206.402 39.1237 206.793 39.2539C207.184 39.3711 207.626 39.4297 208.121 39.4297C208.759 39.4297 209.436 39.3516 210.152 39.1953C210.868 39.026 211.578 38.8047 212.281 38.5312C212.984 38.2578 213.668 37.9453 214.332 37.5938C214.996 37.2292 215.602 36.8516 216.148 36.4609C217.112 35.7708 218.036 35.0286 218.922 34.2344C219.82 33.4271 220.686 32.6068 221.52 31.7734L222.555 30.7383C223.271 30.1003 223.883 29.7812 224.391 29.7812C224.651 29.7812 224.827 29.8724 224.918 30.0547C225.022 30.224 225.074 30.3737 225.074 30.5039ZM238.525 29.2539C238.525 28.4727 238.453 27.9128 238.31 27.5742C238.18 27.2227 238.024 27.0469 237.841 27.0469C237.607 27.0469 237.353 27.1055 237.08 27.2227C236.819 27.3268 236.565 27.4701 236.318 27.6523C236.071 27.8216 235.836 28.0104 235.615 28.2188C235.407 28.4271 235.231 28.6289 235.087 28.8242C234.827 29.2018 234.534 29.6315 234.209 30.1133C233.883 30.5951 233.551 31.1094 233.212 31.6562C232.874 32.2031 232.542 32.763 232.216 33.3359C231.904 33.9089 231.624 34.4753 231.377 35.0352C231.129 35.5951 230.927 36.1354 230.771 36.6562C230.615 37.1771 230.537 37.6458 230.537 38.0625C230.537 38.5052 230.602 38.8633 230.732 39.1367C230.862 39.3971 231.097 39.5273 231.435 39.5273C231.617 39.5273 231.891 39.3971 232.255 39.1367C232.633 38.8763 233.037 38.5508 233.466 38.1602C233.909 37.7565 234.345 37.3203 234.775 36.8516C235.205 36.3828 235.563 35.9336 235.849 35.5039C236.162 35.0352 236.474 34.5339 236.787 34C237.099 33.4661 237.386 32.9258 237.646 32.3789C237.907 31.832 238.115 31.2917 238.271 30.7578C238.44 30.224 238.525 29.7227 238.525 29.2539ZM250.244 37.6328C250.244 37.8672 250.198 38.1406 250.107 38.4531C250.016 38.7526 249.86 39.0586 249.638 39.3711C249.391 39.7878 249.065 40.2174 248.662 40.6602C248.258 41.0898 247.796 41.487 247.275 41.8516C246.767 42.2161 246.207 42.5156 245.595 42.75C244.996 42.9714 244.365 43.082 243.701 43.082C242.946 43.082 242.275 42.9258 241.689 42.6133C241.103 42.3008 240.595 41.8776 240.166 41.3438C239.736 40.7969 239.391 40.1719 239.13 39.4688C238.87 38.7526 238.694 38.0039 238.603 37.2227C238.056 38.0299 237.431 38.8047 236.728 39.5469C236.038 40.276 235.309 40.9271 234.541 41.5C233.785 42.0599 233.017 42.5091 232.236 42.8477C231.455 43.1732 230.712 43.3359 230.009 43.3359C229.502 43.3359 229.02 43.2253 228.564 43.0039C228.108 42.7695 227.705 42.457 227.353 42.0664C227.015 41.6758 226.741 41.2266 226.533 40.7188C226.324 40.2109 226.22 39.6771 226.22 39.1172C226.22 38.6224 226.259 38.1016 226.337 37.5547C226.429 36.9948 226.572 36.3958 226.767 35.7578C226.962 35.1198 227.216 34.4232 227.529 33.668C227.854 32.9128 228.252 32.0859 228.72 31.1875C229.241 30.1849 229.873 29.2344 230.615 28.3359C231.357 27.4245 232.112 26.6302 232.88 25.9531C233.649 25.263 234.391 24.7161 235.107 24.3125C235.823 23.9089 236.409 23.707 236.865 23.707C237.008 23.707 237.164 23.7331 237.334 23.7852C237.516 23.8242 237.685 23.8763 237.841 23.9414C237.998 23.9935 238.134 24.0456 238.252 24.0977C238.369 24.1497 238.447 24.1758 238.486 24.1758C238.499 24.1758 238.545 24.1497 238.623 24.0977C238.701 24.0456 238.798 23.9935 238.916 23.9414C239.033 23.8763 239.157 23.8242 239.287 23.7852C239.43 23.7331 239.573 23.707 239.716 23.707C239.938 23.707 240.172 23.7721 240.42 23.9023C240.68 24.0195 240.927 24.1823 241.162 24.3906C241.396 24.5859 241.604 24.8073 241.787 25.0547C241.969 25.3021 242.086 25.5495 242.138 25.7969C242.177 25.9531 242.21 26.0638 242.236 26.1289C242.262 26.181 242.288 26.2266 242.314 26.2656C242.483 26.4219 242.62 26.5977 242.724 26.793C242.828 26.9753 242.88 27.2357 242.88 27.5742C242.88 27.7305 242.835 28.0169 242.744 28.4336C242.666 28.8372 242.568 29.2995 242.451 29.8203C242.347 30.3411 242.249 30.888 242.158 31.4609C242.08 32.0208 242.041 32.5352 242.041 33.0039C242.041 34.2148 242.112 35.237 242.255 36.0703C242.412 36.8906 242.607 37.5547 242.841 38.0625C243.076 38.5703 243.343 38.9349 243.642 39.1562C243.942 39.3646 244.241 39.4688 244.541 39.4688C245.335 39.4688 246.012 39.306 246.572 38.9805C247.145 38.6549 247.646 38.2122 248.076 37.6523C248.193 37.5091 248.291 37.3854 248.369 37.2812C248.46 37.1641 248.545 37.0664 248.623 36.9883C248.714 36.9102 248.811 36.8516 248.916 36.8125C249.033 36.7734 249.17 36.7539 249.326 36.7539C249.521 36.7539 249.723 36.8385 249.931 37.0078C250.14 37.1641 250.244 37.3724 250.244 37.6328Z" fill="black"/>
</svg>
